<svg xmlns="http://www.w3.org/2000/svg" viewBox="0 0 100 100">
  <rect width="100" height="100" rx="24" fill="#f40c3f" />
  <g stroke="#160000" stroke-width="3.4" stroke-linecap="round" fill="none">
    <path d="M44 48 C31 41 26 43 19 34" />
    <path d="M44 53 C28 51 22 55 13 51" />
    <path d="M44 59 C28 63 24 69 18 72" />
    <path d="M46 63 C36 73 33 80 29 86" />
    <path d="M56 48 C69 41 74 43 81 34" />
    <path d="M56 53 C72 51 78 55 87 51" />
    <path d="M56 59 C72 63 76 69 82 72" />
    <path d="M54 63 C64 73 67 80 71 86" />
  </g>
  <g fill="#160000">
    <ellipse cx="50" cy="43" rx="8" ry="9" />
    <ellipse cx="50" cy="61" rx="11.5" ry="14.5" />
  </g>
</svg>
